<svg width="20" height="20" viewBox="0 0 20 20" fill="none" xmlns="http://www.w3.org/2000/svg">
<path d="M19.4377 7.7803C19.3664 7.55755 19.229 7.36087 19.0431 7.21557C18.8572 7.07027 18.6314 6.983 18.3946 6.96497L13.2604 6.52842C13.2293 6.52542 13.1997 6.5142 13.1746 6.49596C13.1495 6.47771 13.1299 6.45313 13.1179 6.42481L11.112 1.72303C11.0191 1.50854 10.8642 1.32565 10.6664 1.19709C10.4687 1.06854 10.2369 1 9.99983 1C9.7628 1 9.531 1.06854 9.33326 1.19709C9.13552 1.32565 8.98056 1.50854 8.88766 1.72303L6.88179 6.42481C6.86977 6.45313 6.85018 6.47771 6.82509 6.49596C6.8 6.5142 6.77036 6.52542 6.73931 6.52842L1.60502 6.96497C1.36829 6.983 1.14246 7.07027 0.956575 7.21557C0.770688 7.36087 0.633248 7.55755 0.561932 7.7803C0.486403 8.00337 0.479805 8.24346 0.542974 8.47022C0.606142 8.69698 0.736241 8.90022 0.916825 9.05427L4.81201 12.3963C4.83586 12.4171 4.85358 12.4439 4.8633 12.4738C4.87302 12.5037 4.87439 12.5356 4.86727 12.5662L3.69639 17.5355C3.64181 17.7643 3.65738 18.0038 3.74114 18.2239C3.82489 18.444 3.97308 18.6348 4.16699 18.7721C4.35788 18.9106 4.58662 18.9897 4.82366 18.9991C5.0607 19.0084 5.29515 18.9477 5.49675 18.8247L9.91003 16.1919C9.93597 16.1761 9.96587 16.1677 9.99638 16.1677C10.0269 16.1677 10.0568 16.1761 10.0827 16.1919L14.496 18.8247C14.6997 18.9474 14.9358 19.008 15.1744 18.9988C15.4131 18.9896 15.6436 18.9111 15.837 18.7732C16.0303 18.6353 16.1778 18.4441 16.2608 18.2238C16.3438 18.0035 16.3586 17.764 16.3033 17.5355L15.1358 12.5645C15.1287 12.5339 15.1301 12.502 15.1398 12.4721C15.1495 12.4422 15.1673 12.4154 15.1911 12.3946L19.0863 9.05257C19.2659 8.89826 19.3952 8.69512 19.4577 8.46873C19.5202 8.24234 19.5133 8.00282 19.4377 7.7803ZM18.4016 8.2831L14.5064 11.6251C14.3404 11.7672 14.217 11.9511 14.1494 12.157C14.0819 12.3629 14.0727 12.5831 14.123 12.7938L15.2904 17.7648C15.299 17.7982 15.2971 17.8334 15.285 17.8657C15.2728 17.898 15.2509 17.9259 15.2222 17.9457C15.1962 17.9661 15.1643 17.9779 15.1311 17.9793C15.0978 17.9807 15.065 17.9716 15.0374 17.9533L10.6241 15.3205C10.436 15.208 10.22 15.1485 9.99983 15.1485C9.77965 15.1485 9.56369 15.208 9.37553 15.3205L4.96226 17.9533C4.93464 17.9716 4.90182 17.9807 4.86859 17.9793C4.83536 17.9779 4.80344 17.9661 4.77747 17.9457C4.74879 17.9259 4.7269 17.898 4.71471 17.8657C4.70253 17.8334 4.70063 17.7982 4.70926 17.7648L5.87669 12.7938C5.92695 12.5831 5.91781 12.3629 5.85025 12.157C5.78269 11.9511 5.65927 11.7672 5.4933 11.6251L1.59812 8.2831C1.57148 8.26081 1.55234 8.2311 1.54325 8.19789C1.53415 8.16467 1.53552 8.12953 1.54717 8.0971C1.55589 8.0648 1.5748 8.03606 1.60117 8.015C1.62755 7.99394 1.66004 7.98165 1.69396 7.97989L6.82911 7.54335C7.04895 7.52492 7.25947 7.44768 7.43786 7.31997C7.61625 7.19227 7.75571 7.01898 7.84112 6.81889L9.847 2.11711C9.86094 2.08793 9.88305 2.06325 9.91072 2.04597C9.9384 2.02869 9.9705 2.01951 10.0033 2.01951C10.0361 2.01951 10.0682 2.02869 10.0959 2.04597C10.1235 2.06325 10.1456 2.08793 10.1596 2.11711L12.1586 6.81889C12.2437 7.0185 12.3826 7.19147 12.5603 7.31914C12.7381 7.44681 12.9479 7.52433 13.1671 7.54335L18.3023 7.97989C18.3362 7.98165 18.3687 7.99394 18.395 8.015C18.4214 8.03606 18.4403 8.0648 18.449 8.0971C18.4611 8.1292 18.463 8.16413 18.4545 8.19732C18.4461 8.23051 18.4276 8.26041 18.4016 8.2831Z" fill="#999999"/>
</svg>
